<svg width="16" height="16" viewBox="0 0 16 16" fill="none" xmlns="http://www.w3.org/2000/svg">
<path d="M2.33329 5.33314C2.33342 4.70108 2.49694 4.07979 2.80797 3.52956C3.119 2.97933 3.56698 2.51884 4.10845 2.19278C4.64991 1.86673 5.26647 1.68617 5.89828 1.66865C6.5301 1.65112 7.15571 1.79721 7.71442 2.09275C8.27313 2.38829 8.74595 2.82323 9.08701 3.35538C9.42806 3.88752 9.62577 4.49879 9.66094 5.12987C9.69611 5.76095 9.56755 6.3904 9.28774 6.95714C9.00793 7.52389 8.58636 8.00868 8.06396 8.36447C9.18896 8.77709 10.1647 9.51695 10.8657 10.4888C11.5667 11.4607 11.9608 12.6201 11.9973 13.8178C11.9957 13.9469 11.9443 14.0705 11.8539 14.1626C11.7634 14.2548 11.6408 14.3084 11.5117 14.3122C11.3826 14.3161 11.257 14.2699 11.1611 14.1834C11.0653 14.0969 11.0066 13.9766 10.9973 13.8478C10.9576 12.5488 10.4136 11.3162 9.48074 10.4114C8.54783 9.50658 7.29926 9.00054 5.99962 9.00054C4.69999 9.00054 3.45142 9.50658 2.51851 10.4114C1.5856 11.3162 1.04166 12.5488 1.00196 13.8478C0.995282 13.9784 0.937742 14.1011 0.841663 14.1898C0.745584 14.2784 0.618609 14.3259 0.487939 14.3221C0.357269 14.3182 0.233298 14.2634 0.142584 14.1692C0.0518706 14.0751 0.00162932 13.9492 0.00262374 13.8185C0.0389913 12.6206 0.433028 11.4611 1.13401 10.4891C1.835 9.51709 2.81085 8.77714 3.93596 8.36447C3.44201 8.02806 3.03778 7.57602 2.75845 7.04769C2.47912 6.51936 2.33317 5.93076 2.33329 5.33314ZM5.99996 2.66647C5.29271 2.66647 4.61444 2.94742 4.11434 3.44752C3.61424 3.94762 3.33329 4.62589 3.33329 5.33314C3.33329 6.04038 3.61424 6.71866 4.11434 7.21876C4.61444 7.71885 5.29271 7.9998 5.99996 7.9998C6.7072 7.9998 7.38548 7.71885 7.88557 7.21876C8.38567 6.71866 8.66662 6.04038 8.66662 5.33314C8.66662 4.62589 8.38567 3.94762 7.88557 3.44752C7.38548 2.94742 6.7072 2.66647 5.99996 2.66647ZM11.5266 5.33314C11.4284 5.33314 11.332 5.33981 11.2373 5.35314C11.1712 5.36497 11.1034 5.36337 11.0379 5.34844C10.9725 5.3335 10.9107 5.30553 10.8563 5.2662C10.8018 5.22686 10.7559 5.17697 10.7212 5.1195C10.6865 5.06203 10.6637 4.99815 10.6542 4.93168C10.6447 4.86521 10.6487 4.7975 10.6659 4.73261C10.6832 4.66771 10.7133 4.60695 10.7545 4.55396C10.7957 4.50096 10.8472 4.45681 10.9059 4.42414C10.9646 4.39147 11.0292 4.37095 11.096 4.36381C11.759 4.26794 12.4351 4.39527 13.0179 4.72575C13.6006 5.05624 14.0569 5.57112 14.315 6.18936C14.5731 6.8076 14.6183 7.4941 14.4435 8.14083C14.2686 8.78756 13.8837 9.3578 13.3493 9.7618C14.1349 10.1136 14.8019 10.6851 15.2699 11.4076C15.7378 12.13 15.9868 12.9724 15.9866 13.8331C15.9866 13.9657 15.9339 14.0929 15.8402 14.1867C15.7464 14.2805 15.6192 14.3331 15.4866 14.3331C15.354 14.3331 15.2268 14.2805 15.1331 14.1867C15.0393 14.0929 14.9866 13.9657 14.9866 13.8331C14.9869 13.0892 14.7473 12.3649 14.3034 11.7678C13.8596 11.1708 13.2351 10.7326 12.5226 10.5185L12.1666 10.4118V9.29447L12.44 9.15514C12.8451 8.9499 13.1693 8.61411 13.3602 8.20197C13.551 7.78983 13.5974 7.32539 13.4918 6.88364C13.3863 6.4419 13.1349 6.04861 12.7784 5.76729C12.4218 5.48597 11.9808 5.33302 11.5266 5.33314Z" fill="#707070"/>
</svg>
